<?xml version="1.0" standalone="no"?>
<!DOCTYPE svg PUBLIC "-//W3C//DTD SVG 20010904//EN"
 "http://www.w3.org/TR/2001/REC-SVG-20010904/DTD/svg10.dtd">
<svg version="1.0" xmlns="http://www.w3.org/2000/svg"
 width="965.000000pt" height="947.000000pt" viewBox="0 0 965.000000 947.000000"
 preserveAspectRatio="xMidYMid meet">

<g transform="translate(0.000000,947.000000) scale(0.100000,-0.100000)"
fill="#000000" stroke="none">
<path d="M2399 7496 c-20 -7 -54 -23 -75 -36 -377 -226 -565 -567 -525 -954
21 -212 92 -367 231 -506 115 -115 304 -217 422 -228 32 -2 58 -7 58 -9 0 -2
-11 -19 -24 -36 -49 -66 -106 -215 -106 -278 l0 -28 385 -3 c370 -3 385 -4
403 -23 17 -17 22 -52 36 -235 10 -118 20 -223 22 -232 5 -16 20 -18 138 -18
l133 0 17 43 c19 51 81 127 103 127 8 0 13 -3 11 -7 -87 -172 -87 -173 -31
-214 78 -55 215 -173 343 -294 143 -135 225 -198 305 -236 102 -48 100 -48
192 30 97 84 145 148 221 298 31 62 60 113 65 113 14 0 7 -60 -14 -123 -44
-132 -106 -211 -302 -380 -57 -50 -67 -63 -67 -91 0 -18 27 -134 60 -257 74
-275 161 -664 195 -864 32 -189 35 -198 91 -265 55 -67 75 -104 102 -195 36
-116 83 -172 167 -194 54 -14 328 -24 390 -14 60 10 66 27 40 106 -34 103 -76
135 -214 161 -93 18 -106 23 -142 63 -92 98 -133 351 -134 813 0 297 10 394
48 469 19 37 41 55 152 124 224 140 291 225 370 470 20 64 43 123 51 134 13
16 14 12 8 -42 -18 -173 -51 -271 -129 -380 -72 -101 -161 -176 -278 -233
-111 -54 -122 -62 -133 -106 l-7 -29 54 7 c30 3 115 11 189 16 149 11 238 34
315 80 118 70 197 84 313 57 43 -10 62 -11 62 -3 0 6 -30 74 -67 151 -63 130
-68 145 -68 205 1 73 16 109 73 172 36 40 246 184 330 227 40 20 141 46 149
37 2 -2 -28 -22 -66 -45 -157 -93 -339 -221 -377 -264 -49 -56 -66 -109 -52
-169 5 -24 38 -103 73 -178 35 -74 79 -184 99 -244 55 -165 88 -206 170 -206
50 0 96 44 140 133 46 94 70 188 91 362 9 77 23 172 32 210 19 88 68 195 90
195 11 0 14 -6 9 -26 -20 -80 -47 -227 -61 -335 -31 -242 -64 -351 -137 -463
-21 -32 -37 -60 -36 -61 126 -76 172 -123 248 -254 94 -161 228 -258 390 -282
107 -16 172 -1 251 58 100 75 179 156 179 182 0 24 -51 110 -194 330 -75 116
-81 128 -80 175 1 37 13 76 44 146 40 87 44 102 44 176 1 76 -2 86 -42 165
-23 46 -74 127 -113 179 -39 52 -92 127 -119 166 -27 39 -62 83 -79 97 -35 29
-107 47 -187 47 -75 0 -100 13 -287 141 -200 138 -298 214 -451 349 -66 58
-167 147 -225 198 -68 60 -132 106 -179 129 l-73 37 -217 7 c-403 14 -558 42
-932 164 -333 109 -460 137 -689 155 -233 19 -516 -15 -752 -90 -112 -35 -149
-37 -232 -9 -110 37 -178 79 -262 164 -130 129 -188 278 -188 480 -1 244 98
470 286 657 53 53 97 104 97 112 0 35 -74 46 -141 22z m4454 -3366 c54 -14 68
-33 44 -57 -25 -25 -84 -8 -129 37 -21 21 -38 45 -38 54 0 15 4 15 38 -2 20
-10 59 -25 85 -32z"/>
<path d="M1371 5373 l-24 -16 6 -161 c4 -89 11 -242 17 -341 5 -99 19 -369 30
-600 11 -231 27 -539 35 -685 8 -146 21 -407 30 -580 21 -446 22 -461 42 -482
15 -17 46 -18 555 -18 503 0 539 1 545 17 9 24 9 112 0 146 l-7 27 -443 0
c-362 0 -447 3 -462 14 -21 15 -16 -68 -99 1616 -40 787 -42 880 -24 898 15
15 1349 18 1377 2 23 -12 32 -54 40 -190 l6 -105 85 -3 c47 -1 91 2 99 7 13 8
13 37 -1 223 -15 196 -18 214 -38 230 -21 17 -74 18 -884 18 -787 0 -864 -1
-885 -17z"/>
<path d="M7600 5067 c-48 -24 -38 -54 38 -126 74 -69 92 -105 92 -183 0 -51
-15 -55 -44 -11 -91 133 -294 151 -372 33 -60 -90 -61 -203 -2 -365 l32 -90 7
-275 c6 -288 8 -297 60 -410 l32 -70 123 0 c120 0 124 -1 140 -25 19 -29 14
-48 -29 -117 -25 -40 -32 -62 -31 -99 1 -54 14 -75 126 -198 89 -97 120 -160
126 -256 8 -123 -31 -209 -149 -327 l-57 -58 338 0 339 0 20 26 c43 55 22 114
-57 156 -45 24 -54 57 -50 173 4 100 5 101 95 320 95 230 168 441 204 591 22
91 26 172 20 394 -3 111 -2 119 38 243 64 199 56 320 -24 403 -102 106 -269
71 -366 -76 l-17 -25 -7 46 c-11 75 8 122 81 200 64 68 78 101 52 127 -18 18
-723 17 -758 -1z m-60 -339 c36 -18 48 -31 59 -64 21 -60 3 -126 -73 -282
l-63 -127 -12 58 c-7 31 -26 103 -42 159 -42 150 -36 232 20 263 37 20 60 18
111 -7z m981 2 c61 -33 63 -126 9 -314 -22 -77 -42 -141 -43 -143 -7 -6 -88
146 -112 211 -28 74 -35 159 -15 195 26 49 113 76 161 51z"/>
<path d="M2013 5009 c-12 -6 -24 -21 -27 -33 -9 -38 12 -136 41 -190 24 -45
27 -62 28 -146 0 -123 -16 -156 -140 -290 -130 -141 -129 -137 -122 -412 6
-241 21 -368 61 -493 38 -119 88 -195 205 -311 57 -57 102 -107 98 -110 -8 -8
-117 77 -205 160 -49 47 -76 66 -83 59 -17 -17 -58 -149 -74 -240 -8 -49 -15
-129 -15 -179 l0 -92 394 2 c217 0 397 4 400 7 4 3 -8 37 -26 75 -30 62 -33
78 -33 159 0 90 0 91 -30 111 -46 30 -58 79 -52 212 3 62 10 119 17 127 7 9
42 14 110 17 54 1 102 7 107 11 4 5 -7 35 -25 67 -17 32 -32 66 -32 75 0 9 13
35 29 58 86 127 85 135 -46 321 -24 34 -27 45 -23 100 3 33 5 100 5 148 0 80
-2 90 -25 113 -18 18 -48 30 -100 41 -81 17 -105 31 -115 71 -9 39 6 48 60 34
65 -16 79 -9 98 53 10 30 26 65 36 77 15 18 17 29 9 54 -5 16 -20 90 -33 164
-33 189 -18 178 -270 185 -139 4 -207 3 -222 -5z m98 -1036 c2 -191 19 -473
28 -498 7 -16 35 -63 63 -103 27 -40 47 -76 44 -80 -13 -12 -146 132 -156 168
-11 39 -14 543 -3 553 16 16 23 4 24 -40z"/>
<path d="M2954 4788 c-101 -270 -165 -434 -224 -573 -68 -159 -68 -160 -47
-171 97 -52 920 -58 1126 -9 35 9 67 18 72 21 5 3 -20 62 -55 132 -88 177
-151 323 -211 492 -67 192 -41 180 -377 180 l-256 0 -28 -72z"/>
<path d="M5489 3960 c-35 -20 -133 -39 -266 -50 -76 -7 -141 -14 -145 -16 -14
-9 136 -290 300 -564 117 -195 149 -260 182 -370 13 -41 28 -81 34 -89 6 -7
43 -37 81 -66 77 -56 112 -97 190 -214 58 -88 109 -127 184 -141 60 -11 362
-12 401 -1 47 13 34 90 -32 184 -31 44 -92 69 -208 84 -172 22 -219 65 -303
275 -25 62 -77 182 -116 267 -86 184 -154 365 -213 561 -44 146 -54 161 -89
140z"/>
<path d="M3217 3952 l-130 -3 6 -36 c4 -21 19 -49 37 -68 l30 -31 -26 -25
c-44 -40 -74 -116 -74 -184 0 -77 25 -130 80 -178 l44 -37 -346 0 c-306 0
-347 -2 -352 -16 -3 -9 -6 -59 -6 -113 0 -115 12 -141 66 -141 39 0 38 3 19
-43 -8 -20 -15 -65 -15 -100 0 -55 6 -76 46 -158 75 -152 88 -229 59 -339 -22
-81 -20 -88 20 -96 78 -14 102 14 131 157 20 97 16 170 -17 312 -20 87 -21
104 -10 145 15 57 33 86 68 109 25 16 65 18 433 21 l406 3 34 -23 c72 -48 84
-116 49 -265 -30 -126 -24 -312 13 -394 18 -39 33 -58 49 -62 24 -6 99 1 99
10 0 3 -9 36 -21 74 -35 114 -26 182 41 315 51 103 54 113 54 184 1 58 -4 84
-22 117 l-22 42 53 8 52 8 0 125 0 125 -342 -2 -342 -2 49 47 c92 90 95 236 5
339 l-33 38 29 31 c17 17 32 46 36 66 l5 36 -63 4 c-35 1 -121 2 -192 0z"/>
<path d="M7443 3524 c-29 -7 -62 -94 -70 -183 -7 -84 -19 -106 -100 -189 -101
-103 -141 -158 -159 -219 -36 -123 10 -249 136 -375 43 -43 72 -78 65 -78 -41
0 -61 -71 -26 -90 11 -6 90 -10 186 -10 96 0 175 4 186 10 35 19 24 57 -27 89
l-47 29 69 40 c79 47 132 98 165 162 20 38 24 60 24 140 0 86 -3 100 -29 147
-16 28 -64 91 -108 139 -44 47 -86 102 -94 120 -24 57 -18 115 20 188 24 47
31 68 23 73 -14 9 -182 14 -214 7z m144 -459 c2 -24 -7 -41 -47 -83 l-50 -53
0 57 c0 49 4 62 27 86 36 37 67 34 70 -7z m-145 -60 c4 -33 11 -77 16 -98 11
-43 3 -267 -9 -267 -10 0 -16 33 -29 166 -6 56 -15 117 -20 135 -20 67 -10
132 19 127 12 -2 18 -19 23 -63z m-139 13 c16 -12 81 -187 73 -195 -2 -2 -31
23 -65 55 -55 53 -61 63 -61 99 0 55 17 67 53 41z m427 -73 c19 -23 2 -69 -42
-111 l-41 -39 7 70 c4 38 12 75 18 82 14 17 43 16 58 -2z m-135 -41 c24 -25
10 -73 -35 -116 -22 -21 -44 -38 -50 -38 -24 0 -5 112 26 145 27 29 37 31 59
9z m-312 -75 c24 -12 117 -99 117 -109 0 -4 -21 -4 -47 0 -35 5 -57 15 -82 38
-18 18 -37 32 -42 32 -10 0 -12 33 -2 43 10 10 31 8 56 -4z m405 -90 c2 -9 -9
-30 -23 -47 -26 -31 -43 -37 -137 -45 l-46 -4 17 31 c13 23 30 34 67 45 27 7
58 20 69 27 25 18 49 14 53 -7z m-313 -64 c25 -25 32 -45 16 -45 -13 0 -71 50
-71 61 0 17 31 9 55 -16z"/>
<path d="M3085 3043 c2 -21 10 -103 16 -182 14 -184 17 -181 -137 -181 l-104
0 0 -95 0 -95 220 0 c217 0 220 0 234 23 13 19 12 54 -5 282 -10 142 -21 265
-23 272 -4 9 -33 13 -106 13 l-100 0 5 -37z"/>
<path d="M2837 2995 c-21 -44 -21 -58 -1 -167 l16 -88 45 0 46 0 -7 46 c-8 60
-64 244 -75 244 -4 0 -15 -16 -24 -35z"/>
<path d="M2677 2034 c-4 -4 -7 -95 -7 -203 0 -108 -5 -213 -10 -233 -6 -20
-25 -49 -42 -63 -29 -25 -38 -27 -101 -23 -63 3 -72 7 -98 36 l-29 32 0 225 0
225 -75 0 -75 0 0 -226 c0 -263 5 -289 70 -355 54 -56 119 -79 221 -79 129 0
210 44 256 137 l28 58 0 235 0 235 -65 3 c-36 2 -69 0 -73 -4z"/>
<path d="M3090 2032 l-55 -7 0 -320 0 -320 73 -3 72 -3 0 91 0 90 55 0 54 0
63 -90 63 -90 83 0 c59 0 82 3 82 13 0 6 -29 50 -64 96 l-63 84 43 43 c73 72
94 196 48 286 -46 92 -117 125 -286 132 -62 2 -138 1 -168 -2z m278 -148 c36
-24 55 -77 42 -123 -17 -63 -39 -75 -141 -79 l-89 -4 0 109 c0 60 2 112 4 114
11 11 162 -3 184 -17z"/>
<path d="M3774 2031 c-2 -2 -4 -150 -4 -328 l0 -323 75 0 75 0 0 90 0 90 88 0
c114 0 182 20 230 68 60 60 79 162 47 253 -32 89 -100 134 -228 150 -76 10
-273 9 -283 0z m316 -146 c57 -30 75 -86 45 -144 -18 -37 -60 -51 -146 -51
l-69 0 0 105 0 105 70 0 c43 0 82 -6 100 -15z"/>
<path d="M7177 2030 c-217 -55 -314 -278 -212 -487 70 -142 262 -209 443 -154
160 48 252 203 222 373 -31 171 -147 267 -329 274 -47 2 -103 -1 -124 -6z
m201 -149 c73 -38 102 -87 102 -176 0 -89 -29 -138 -102 -176 -47 -24 -146
-26 -191 -3 -78 39 -109 91 -109 179 0 87 32 140 107 179 43 23 146 21 193 -3z"/>
<path d="M8049 2026 c-94 -25 -165 -82 -212 -170 -18 -34 -22 -57 -22 -141 0
-87 3 -107 26 -155 33 -70 89 -126 159 -159 49 -23 67 -26 165 -26 100 0 116
3 170 28 33 15 75 42 93 60 l32 31 0 128 0 129 -157 -3 -158 -3 0 -60 0 -60
83 -3 82 -3 0 -39 c0 -37 -2 -39 -47 -56 -181 -69 -342 64 -294 242 33 124
176 172 307 104 l58 -31 49 49 50 50 -43 31 c-86 62 -232 87 -341 57z"/>
<path d="M1530 1705 l0 -325 75 0 75 0 0 90 0 90 83 0 c196 0 286 73 287 233
0 79 -20 128 -74 175 -56 49 -117 62 -293 62 l-153 0 0 -325z m320 178 c39
-27 49 -45 50 -90 0 -30 -7 -50 -24 -70 -23 -26 -31 -28 -110 -32 l-86 -3 0
106 0 106 73 0 c52 0 80 -5 97 -17z"/>
<path d="M4485 2018 c-3 -7 -4 -153 -3 -323 l3 -310 218 -3 217 -2 0 65 0 65
-140 0 -140 0 -2 258 -3 257 -73 3 c-52 2 -74 -1 -77 -10z"/>
<path d="M5110 1705 l0 -325 225 0 225 0 0 65 0 65 -150 0 -151 0 3 68 3 67
130 2 130 1 3 56 3 56 -136 0 -135 0 0 70 0 70 150 0 150 0 0 65 0 65 -225 0
-225 0 0 -325z"/>
<path d="M6140 1704 l0 -326 188 4 c177 3 190 4 242 29 68 32 126 88 154 148
17 37 21 65 21 146 0 89 -3 105 -27 151 -38 73 -107 130 -186 154 -53 17 -92
20 -228 20 l-164 0 0 -326z m321 184 c100 -33 156 -138 129 -238 -25 -91 -105
-140 -232 -140 l-68 0 0 195 0 195 69 0 c37 0 83 -5 102 -12z"/>
</g>
</svg>
